<svg xmlns="http://www.w3.org/2000/svg" id="Layer_1" style="" viewBox="0 0 200 41.103" x="0px" y="0px" xmlns:xml="http://www.w3.org/XML/1998/namespace" xml:space="preserve" version="1.1">
<style type="text/css">
	.st0{fill:#2DBE60;}
	.st1{fill-rule:evenodd;clip-rule:evenodd;fill:#666666;}
</style>
<g>
	<g>
		<g>
			<path class="st0" d="M 57.467 27.432 h -5.342 l 0.035 -5.732 h 5.409 v -2.643 h -5.376 l 0.034 -5.385 h 5.31 l 0.239 2.711 h 2.773 l -0.172 -5.352 H 46.305 v 2.641 h 2.225 l -0.102 13.759 h -2.122 v 2.639 h 14.177 l 0.342 -5.698 h -3.013 L 57.467 27.432 Z M 75.206 13.673 h 2.26 l -4.589 12.925 h -0.068 l -4.622 -12.925 h 1.884 v -2.641 h -8.015 v 2.641 h 1.884 l 6.712 16.399 h 3.835 l 6.68 -16.399 h 1.779 v -2.641 h -7.739 V 13.673 Z M 95.957 27.432 h -5.342 l 0.035 -5.732 h 5.41 v -2.643 h -5.375 l 0.033 -5.385 h 5.309 l 0.239 2.711 h 2.774 l -0.172 -5.352 H 84.794 v 2.641 h 2.225 l -0.102 13.759 h -2.123 v 2.639 h 14.177 l 0.341 -5.698 H 96.3 L 95.957 27.432 Z M 116.778 25.137 c -1.747 -3.056 -2.192 -3.509 -3.939 -3.993 v -0.072 c 3.357 -0.867 4.419 -2.849 4.419 -5.037 c 0 -2.466 -1.403 -5.004 -5.754 -5.004 h -8.664 v 2.641 h 2.225 l -0.102 13.759 h -2.123 v 2.639 h 8.081 v -2.639 h -2.227 l 0.035 -5.455 h 0.753 c 1.37 0 1.782 0.243 3.563 3.787 c 1.985 3.995 2.292 4.308 4.827 4.308 h 1.918 v -2.745 c -0.239 0.035 -0.514 0.105 -0.787 0.105 C 118.354 27.432 117.942 27.119 116.778 25.137 Z M 110.237 19.335 h -1.471 l 0.032 -5.663 h 2.261 c 1.714 0 2.569 1.043 2.569 2.779 C 113.627 18.223 112.257 19.335 110.237 19.335 Z M 134.791 13.673 h 2.225 l -0.102 10.249 h -0.07 l -9.518 -12.89 h -5.549 v 2.641 h 2.226 l -0.102 13.759 h -2.124 v 2.639 h 7.364 v -2.639 h -2.228 l 0.103 -10.91 h 0.068 l 10.034 13.55 h 2.809 l 0.102 -16.399 h 2.122 v -2.641 h -7.36 V 13.673 Z M 152.801 10.65 c -5.788 0 -9.314 4.171 -9.314 10.147 c 0 5.315 2.843 9.657 9.314 9.657 c 5.788 0 9.315 -4.169 9.315 -10.18 C 162.116 14.992 159.273 10.65 152.801 10.65 Z M 152.801 27.396 c -3.15 0 -5.479 -2.467 -5.479 -6.741 c 0 -3.926 1.985 -6.947 5.479 -6.947 c 3.152 0 5.478 2.468 5.478 6.808 C 158.28 24.374 156.294 27.396 152.801 27.396 Z M 163.69 11.031 l -0.205 5.352 h 2.84 l 0.139 -2.711 h 3.766 l -0.102 13.759 h -2.123 v 2.639 h 8.081 v -2.639 h -2.227 l 0.102 -13.759 h 3.768 l 0.136 2.711 h 2.843 l -0.204 -5.352 H 163.69 Z M 194.305 24.374 l -0.344 3.058 h -5.342 l 0.034 -5.732 h 5.41 v -2.643 h -5.376 l 0.035 -5.385 h 5.307 l 0.24 2.711 h 2.773 l -0.17 -5.352 h -14.075 v 2.641 h 2.226 l -0.102 13.759 h -2.124 v 2.639 h 14.177 l 0.342 -5.698 H 194.305 Z" />
		</g>
	</g>
	<g>
		<g>
			<path class="st1" d="M 35.252 7.514 c -0.299 -1.596 -1.248 -2.383 -2.107 -2.692 c -0.926 -0.334 -2.804 -0.681 -5.163 -0.959 c -1.898 -0.224 -4.13 -0.205 -5.478 -0.164 c -0.162 -1.107 -0.939 -2.123 -1.809 -2.473 c -2.316 -0.932 -5.866 -0.706 -6.785 -0.449 c -0.731 0.204 -1.57 0.626 -2.019 1.27 c -0.302 0.431 -0.466 0.982 -0.468 1.752 c 0 0.435 0.012 1.463 0.023 2.375 c 0.011 0.915 -0.007 1.734 -0.007 1.739 c -0.001 0.815 -0.662 1.508 -1.48 1.51 H 6.203 c -0.801 0 -1.413 0.135 -1.881 0.347 c -0.468 0.213 -0.8 0.468 -1.052 0.807 c -0.502 0.673 -0.589 1.504 -0.587 2.352 c 0 0 0.007 0.692 0.174 2.033 C 2.996 16 4.122 23.247 5.191 25.451 c 0.415 0.857 0.691 1.215 1.505 1.593 c 1.815 0.777 5.96 1.641 7.903 1.888 c 1.939 0.248 3.156 0.769 3.881 -0.751 c 0.002 -0.004 0.145 -0.378 0.342 -0.928 c 0.63 -1.907 0.718 -3.598 0.718 -4.823 c 0 -0.124 0.182 -0.13 0.182 0 c 0 0.864 -0.165 3.924 2.147 4.744 c 0.913 0.323 2.807 0.612 4.731 0.838 c 1.74 0.2 3.002 0.884 3.002 5.345 c 0 2.714 -0.57 3.086 -3.552 3.086 c -2.417 0 -3.339 0.062 -3.339 -1.856 c 0 -1.552 1.535 -1.389 2.673 -1.389 c 0.508 0 0.139 -0.378 0.139 -1.334 c 0 -0.953 0.596 -1.521 0.032 -1.535 c -3.934 -0.108 -6.248 0.014 -6.248 4.931 c 0 4.464 1.709 5.292 7.293 5.292 c 4.377 0 5.92 -0.143 7.728 -5.748 c 0.358 -1.107 1.223 -4.483 1.746 -10.153 C 36.405 21.065 35.762 10.245 35.252 7.514 Z M 27.621 19.474 c -0.541 -0.019 -1.061 0.015 -1.546 0.093 c 0.137 -1.102 0.592 -2.454 2.204 -2.398 c 1.785 0.062 2.034 1.748 2.041 2.889 C 29.567 19.723 28.636 19.509 27.621 19.474 Z M 6.048 8.302 c 0 0 0 0 0.002 0 h 3.756 c 0.215 0 0.389 -0.175 0.389 -0.388 c 0 -0.001 -0.046 -3.219 -0.046 -4.113 V 3.789 c 0 -0.735 0.154 -1.375 0.423 -1.912 l 0.128 -0.241 c -0.014 0.002 -0.028 0.009 -0.043 0.023 L 3.36 8.893 C 3.346 8.904 3.337 8.919 3.333 8.935 C 3.484 8.86 3.69 8.758 3.719 8.745 C 4.354 8.458 5.125 8.302 6.048 8.302 Z" />
		</g>
	</g>
</g>
</svg>